<svg fill="#000000" height="27" width="58" xmlns="http://www.w3.org/2000/svg"><g clip-path="url(#a)"><path d="m51.183 9.416 3.536-3.52h1.569c.247 0 .497-.055.73-.163l.152-.08a.564.564 0 0 0 .332-.517.56.56 0 0 0-.323-.513l-.17-.088a1.73 1.73 0 0 0-.721-.159h-1.569L51.184.856A.95.95 0 0 0 50.51.58h-.448a.19.19 0 0 0-.16.292l2.304 3.579c-.577.035-1.06.083-1.645.142l-.601.06-.883-1.33a.192.192 0 0 0-.16-.085h-.38a.192.192 0 0 0-.187.23l.372 1.669-.372 1.668a.19.19 0 0 0 .186.23h.382a.19.19 0 0 0 .159-.085l.881-1.33.603.061c.586.059 1.067.106 1.644.142L49.902 9.4a.19.19 0 0 0 .16.292h.447a.948.948 0 0 0 .674-.277ZM4.566 21.368c1.573 0 2.847-.692 3.596-1.666h.075l.2 1.384h2.771c-.124-.769-.174-1.87-.174-2.999v-4.512c0-2.717-1.124-5.255-5.02-5.255-1.923 0-3.496.539-4.395 1.103l.6 2.05c.823-.538 2.072-.923 3.27-.923 2.148 0 2.473 1.36 2.473 2.18v.205C3.467 12.909.745 14.498.745 17.65c0 1.897 1.373 3.717 3.82 3.717Zm.974-2.255c-.974 0-1.749-.564-1.749-1.795 0-1.897 2.073-2.384 4.246-2.333v1.718c0 .205-.025.461-.1.692-.275.897-1.174 1.718-2.397 1.718Zm12.71 2.23c.975 0 1.774-.128 2.223-.308l-.05-2.41a4.428 4.428 0 0 1-1.198.154c-1.174 0-1.574-.794-1.574-2.307v-5.511h2.922V8.602h-2.922V5.04l-2.996.743v2.82h-1.748v2.359h1.748v5.87c0 1.64.3 2.769.949 3.486.574.641 1.523 1.026 2.647 1.026Zm7.742-.257v-18.2h-3.096v18.2h3.096Zm3.522 5.666c.774-.103 2.022-.513 3.221-1.615 1.449-1.282 2.572-3.358 4.245-8.024l3.047-8.51h-3.296l-1.898 6.664c-.225.82-.45 1.744-.65 2.461h-.074a36.306 36.306 0 0 0-.675-2.435l-2.197-6.69h-3.372L32.31 20.06c.15.308.175.487.175.615 0 .154-.075.334-.2.564-.424.846-1.098 1.59-1.673 1.974-.624.462-1.273.744-1.798.872l.7 2.666Zm14.933-5.41c3.222 0 4.945-1.64 4.945-3.896-.025-1.845-1.049-2.999-3.246-3.82-1.549-.563-2.123-.948-2.123-1.742 0-.77.6-1.308 1.698-1.308 1.074 0 2.048.41 2.572.718l.6-2.23c-.7-.385-1.873-.744-3.222-.744-2.822 0-4.595 1.718-4.595 3.922-.025 1.462.974 2.795 3.346 3.64 1.499.539 1.998.975 1.998 1.82 0 .821-.6 1.385-1.948 1.385-1.098 0-2.422-.462-3.121-.897l-.6 2.281c.9.513 2.223.872 3.696.872Z" fill="#000000"></path><path d="M47.743 5.984V4.56H27.21v1.424h20.533Z" fill="url(#b)"></path></g><defs><linearGradient gradientUnits="userSpaceOnUse" id="b" x1="63.576" x2="27.21" y1="5.272" y2="5.272"><stop stop-color="#B165FD"></stop><stop offset="1" stop-color="#5057EA"></stop></linearGradient><clipPath id="a"><path d="M.619.579h56.883v26.204H.619z" fill="#fff"></path></clipPath></defs></svg>